<svg width="59" height="72" viewBox="0 0 59 72" fill="none" xmlns="http://www.w3.org/2000/svg">
<path fill-rule="evenodd" clip-rule="evenodd" d="M58.3401 21.2499C57.7737 20.5075 56.8862 20.0709 55.9441 20.0713H17.2741L14.7991 12.7875H3.05811C1.40125 12.7875 0.0581055 14.1122 0.0581055 15.7464C0.0581055 17.3805 1.40125 18.7053 3.05811 18.7053H10.4821L23.9821 58.4384H49.1411C50.798 58.4384 52.1411 57.1137 52.1411 55.4795C52.1411 53.8454 50.798 52.5206 49.1411 52.5206H28.2991L26.5731 47.4422H49.6931C51.0311 47.4421 52.2075 46.5683 52.5771 45.2999L58.8271 23.8479C59.0867 22.9545 58.9064 21.9927 58.3401 21.2499ZM50.5591 30.7983H45.7491V25.9891H51.9601L50.5591 30.7983ZM32.9421 25.9891V30.7973H39.7491V25.9891H32.9421ZM39.7491 36.7161V41.5244H32.9421V36.7161H39.7491ZM26.9421 30.7973V25.9891H19.2851L20.9191 30.7973H26.9421ZM22.9291 36.7161H26.9421V41.5244H24.5631L22.9291 36.7161ZM45.7491 36.7161V41.5244H47.4341L48.8351 36.7161H45.7491Z" fill="white"/>
<path d="M27.406 71.8768C30.5988 71.8768 33.187 69.324 33.187 66.175C33.187 63.0259 30.5988 60.4731 27.406 60.4731C24.2132 60.4731 21.625 63.0259 21.625 66.175C21.625 69.324 24.2132 71.8768 27.406 71.8768Z" fill="white"/>
<path d="M44.844 71.8768C48.0367 71.8768 50.625 69.324 50.625 66.175C50.625 63.0259 48.0367 60.4731 44.844 60.4731C41.6512 60.4731 39.063 63.0259 39.063 66.175C39.063 69.324 41.6512 71.8768 44.844 71.8768Z" fill="white"/>
<path d="M29.3351 10.5525L36.8821 15.9692C37.318 16.2831 37.8646 16.4085 38.3961 16.3166C38.9277 16.2247 39.3985 15.9234 39.7001 15.482C40.3461 14.5588 40.1301 13.2806 39.2201 12.6267L36.8471 10.9243L46.2831 5.90403L50.9111 17.7535H55.2581L49.2141 2.2774C49.0072 1.74151 48.5794 1.31742 48.0371 1.11061C47.4998 0.908151 46.8996 0.947423 46.3941 1.21811L33.1461 8.26721L30.1241 6.09833C29.2553 5.47313 28.0397 5.64365 27.3821 6.48299L18.9011 17.1331C18.7309 17.315 18.5939 17.5245 18.4961 17.7525H23.6021L29.3351 10.5525Z" fill="white"/>
</svg>
