<svg width="27" height="15" viewBox="0 0 27 15" fill="none" xmlns="http://www.w3.org/2000/svg">
<path d="M16.138 11.51C17.094 11.201 18.318 13.55 19.621 14.449C20.599 15.13 21.348 14.983 21.348 14.983L24.821 14.933C24.821 14.933 26.636 14.821 25.778 13.379C25.707 13.259 25.275 12.31 23.193 10.357C21.016 8.31398 21.311 8.64498 23.932 5.11298C25.529 2.95998 26.168 1.64498 25.968 1.08498C25.776 0.545976 24.603 0.685976 24.603 0.685976L20.69 0.712976C20.309 0.713976 19.986 0.831976 19.839 1.22798C19.836 1.23198 19.218 2.89398 18.394 4.30698C16.653 7.29598 15.958 7.45498 15.67 7.26798C15.009 6.83498 15.176 5.53098 15.176 4.60398C15.176 1.70698 15.608 0.498976 14.33 0.186976C13.903 0.0829764 13.591 0.0149764 12.502 0.00497638C11.11 -0.0160236 9.928 0.00497639 9.258 0.333976C8.813 0.556976 8.472 1.04598 8.679 1.07398C8.939 1.10898 9.522 1.23398 9.834 1.65998C10.235 2.21198 10.223 3.44898 10.223 3.44898C10.223 3.44898 10.452 6.85998 9.683 7.28298C9.155 7.57298 8.433 6.98098 6.88 4.26698C6.087 2.87898 5.488 1.34498 5.488 1.34498C5.488 1.34498 5.372 1.05998 5.162 0.903976C4.912 0.718976 4.562 0.659976 4.562 0.659976L0.848 0.683976C0.848 0.683976 0.29 0.699976 0.0850002 0.945976C-0.0969998 1.16398 0.0700002 1.61398 0.0700002 1.61398C0.0700002 1.61398 2.979 8.49498 6.273 11.961C9.293 15.143 12.725 14.932 12.725 14.932H14.28C14.28 14.932 14.749 14.878 14.989 14.62C15.213 14.38 15.203 13.929 15.203 13.929C15.203 13.929 15.172 11.82 16.138 11.51Z" fill="white"/>
</svg>
